<?xml version="1.0" encoding="UTF-8"?>
<svg version="1.1" viewBox="0 0 2048 756" width="395" height="146" xmlns="http://www.w3.org/2000/svg">
<path transform="translate(593)" d="m0 0h88l-7 20-22 57-16 41-20 51-38 98-20 51-12 30-23 53-21 49-18 41-12 28-32 74-13 30-11 28-8 19-8 15-10 14-11 12-11 8-16 8-19 7-37 11-24 7h-4l3-10 11-27 43-108 43-107 24-60 15-38 10-28v-6l-43-107-58-145 1-2h123l3 5 15 52 18 62 4 15 2 1 3-9 15-44 15-43 21-62 10-26 11-21 10-15 11-14z" fill="#039BD8"/>
<path transform="translate(1704)" d="m0 0h57v394l-1 1h-79l-1-2v-43l-8 8-7 8-11 9-14 10-16 8-16 5-18 3h-29l-22-4-19-7-13-7-14-11-10-10-10-13-9-16-7-16-6-21-3-18-1-10v-40l3-21 5-19 9-21 10-16 12-14 7-7 14-10 14-7 20-6 18-3 9-1h21l18 3 16 6 15 9 16 13 11 11 4 5 1-82 3-16 5-13 8-15 10-14zm-111 172-14 4-10 6-10 9-7 9-7 15-4 16-1 8v23l3 18 5 15 6 11 8 10 10 8 13 6 10 2h18l15-4 11-6 11-9 8-11 7-14 4-16 1-7v-20l-2-16-5-16-8-15-8-10-10-8-13-6-10-2z" fill="#0271B5"/>
<path transform="translate(1274,104)" d="m0 0h64l15 2 13 4 15 8 12 9 9 9 9 13 6 12 5 16 2 16v201h-80l-1-1v-31l1-13-7 6-9 11-16 16-14 9-16 6-21 4h-28l-19-3-18-6-14-7-10-8-6-5-11-14-7-15-4-17v-23l4-18 5-12 6-10 11-12 8-7 13-8 15-7 20-6 21-4 25-2h44l17 1-5-16-6-11-9-10-11-8-9-4-11-2h-24l-24 4-20 6-18 8-16 9-2 1v-68l6-4 20-7 19-5 22-4 15-2zm36 162-23 1-18 2-15 4-11 6-7 6-6 12-1 3v13l4 10 5 6 9 6 16 4h21l12-3 13-7 10-8 8-10 7-12 5-17 2-16z" fill="#027CC5"/>
<path transform="translate(197,103)" d="m0 0h25l30 3 32 6 14 4 1 1v14l-4 50-24-8-17-4-25-3h-20l-15 2-11 4-7 6-3 8 1 9 6 7 12 6 26 8 30 8 21 8 14 8 13 11 8 10 7 14 4 14 1 6v24l-3 15-6 15-8 12-5 6-11 9-13 8-14 6-16 5-20 4-19 2h-41l-34-4-25-5-13-4-2-2 3-38 2-25 1-4 10 3 30 10 17 4 17 2h26l17-4 10-6 4-7 1-4v-10l-5-10-9-6-17-7-30-8-20-6-19-8-15-10-12-12-6-10-5-14-2-11v-20l3-16 5-12 6-10 11-12 11-9 18-10 17-6 22-5z" fill="#039BD8"/>
<path transform="translate(743,103)" d="m0 0h23l30 3 28 5 19 5 1 1-1 24-3 37-1 3-27-9-20-4-18-2h-20l-16 2-10 4-6 4-4 8v9l4 7 10 6 27 9 30 8 15 5 19 9 12 9 10 10 7 11 5 12 3 12 1 8v15l-2 15-5 15-6 11-8 10-7 7-10 7-10 6-17 7-19 5-19 3-10 1h-40l-30-3-24-4-21-6-2-1 1-18 4-49 3-1 25 9 20 6 16 3 9 1h28l16-4 8-4 5-5 3-9v-7l-4-10-8-7-20-8-21-6-26-7-21-9-14-9-11-10-7-11-5-12-3-14v-25l4-16 7-14 10-13 9-8 11-7 15-8 18-6 19-4z" fill="#039AD7"/>
<path transform="translate(994,103)" d="m0 0h79l21 3 15 5 11 6v10l-5 54-1 2-6-2-10-4-21-5-7-1h-26l-18 4-12 5-11 8-8 7-7 10-7 15-3 11-1 7v26l3 15 6 15 7 10 9 10 14 9 12 5 11 3 7 1h32l28-5 15-4h3v69l-23 5-22 3-12 1h-39l-24-3-21-5-21-8-15-8-11-8-14-12-7-7-10-13-8-13-7-17-5-17-3-17-1-12v-39l2-18 4-15 7-17 11-18 10-13 9-10 11-10 16-9 18-6 13-2z" fill="#0289CA"/>
<path transform="translate(1568,103)" d="m0 0h21l18 3 16 6 15 9 16 13 11 11-1 2-4-2h-2v-3l-4-1-5-4-9-4-12-6-10-6-10-2-7-1-10 2-16 2-14 1-16 6-13 7-7 6 16-8 18-6h20v2l-17 3-8 4-3 3-10 3-5 5-8 10v4h6l13-5 15-7 10-4 10 2 7 2 5 5v2l3-1h10l-5 5-13 2-3 2-1 3h13v1l9 1 1 2-15 1-14 4-10 6-10 9-7 10-6 13-4 16-1 8v23l3 18 5 15 6 11 8 10 11 8 11 5 10 2h18l15-4 11-6 10-8 7-9 1 2-2 3-2 9-10 13-5 4-13 5h-5v2l-7 1h-12l-10 1h-16l-12-4-8-6-7-8-8-10-7-13v-2h-2l3 9 5 12 4 7v2h2l6 8 11 6-3 1-9-2-10-7-5-4-6-10-1-3-3-3-7-12-7-6-2-5-5-2-2-1v-2l-4-1-1-9-5-1v7l2 3-1 16 5 15 3 8 5 8v2l4 2 12 13 8 7 13 11 14 6 7 4 5 10 5 4-2 1 15 2 16 1v1l-13 2h-29l-22-4-19-7-13-7-14-11-10-10-10-13-9-16-7-16-6-21-3-18-1-10v-40l3-21 5-19 9-21 10-16 12-14 7-7 14-10 14-7 20-6 18-3z" fill="#027CC5"/>
<path transform="translate(1272,217)" d="m0 0h44l12 1-4 3-10 5-15 3h-18l-12-2h-11l-15 7-17 5-11 4-8 7-9 11-3 5-3 7-7 8-8 16-3 4-4 10-2 4-1 18 6 12 4 5 3 6 6 8 2 4 10 6v2l5 2v1h-9l-16-11-5-6-5-2-1-4-5-2-3-2 1 6 6 9 9 10-1 2-8-7-11-14-7-15-4-17v-23l4-18 5-12 6-10 11-12 8-7 13-8 15-7 20-6 21-4z" fill="#0289CA"/>
<path transform="translate(805,279)" d="m0 0 5 1 5 5 2 1 3-3 4 1 2 2 3 8v3l3 1v3l5 2 3 3 1 4v11l-3 5-4 4-2 4h-2l-2 5-4 7h-2l-1 3-9 5-6 5h-2v2l-3 2-9 2-7 3-10 1h-15l-7-4v-2l3-3 8-3 11-9 9-6 6-8 10-19 3-9-1-3v-7l1-4 3-1 4 2v-3l-3-4-3-2z" fill="#0389CA"/>
<path transform="translate(869,430)" d="m0 0h13l4 8 12 38 5 15v2l3-3 19-58 2-2h11l1 1v75l-1 1h-6l-2-2v-59h-2l-2 9-16 47-3 5h-6l-5-8-14-43-4-11v60l-2 2h-6l-2-2v-74z" fill="#0280C7"/>
<path transform="translate(1252,106)" d="m0 0 4 1 7 1-3 2h-7l-1 4-6 1-9 3-16 4-7 6-1-4 6-5 10-2v-2l-8 1-1-2-6 2v3l-4 1 2 3-1 4-5 4-11 9-4 7h2v5h8l10-2 8 5 5-1-1 3h-2l1 5 1 2-3 3h-4v2l11 3-3 2-15 5-21 10-10 6v-68l6-4 20-7 19-5 22-4z" fill="#0289CA"/>
<path transform="translate(796,430)" d="m0 0h44l7 3 5 5 3 5 1 12-4 8-7 6-5 2h-3l9 11 7 10 8 12v3h-10l-5-5-10-16-8-10-3-2-19-1v34h-9l-1-1-1-75zm10 8v26h26l9-3 4-5v-11l-4-5-9-2z" fill="#027FC7"/>
<path transform="translate(1818,430)" d="m0 0h8l5 4 9 15 12 18 12 19 1 3 1-1 1-58h9v76l-1 1h-7l-5-4-10-15-11-17-12-19-2-3-1 35v21l-2 2h-6l-2-2v-74z" fill="#0280C7"/>
<path transform="translate(582,429)" d="m0 0 7 2 7 10 15 23 14 22 2 2v-16l1-42h9v76l-1 1h-8l-7-8-14-22-11-17-8-12v29l-1 30h-8l-1-1v-75z" fill="#0280C7"/>
<path transform="translate(1356,430)" d="m0 0h44l8 3 6 8 1 3v14l-3 5-7 6-5 2h-3l7 8 7 10 9 15v3h-9l-5-5-12-19-7-8-2-1-10-1h-9v33l-1 1h-8l-1-1zm10 8-1 1v19l1 6h26l9-3 4-4v-12l-4-5-7-2z" fill="#027FC6"/>
<path transform="translate(1762,429)" d="m0 0h20l12 6 8 9 5 12 1 6v13l-3 12-7 11-8 6-7 3-6 1h-12l-10-3-8-6-7-11-3-10v-19l3-10 6-10 7-6zm5 8-10 4-6 7-3 7-2 18 2 10 5 8 8 7 6 2h10l9-4 8-8 3-9v-21l-5-12-7-6-8-3z" fill="#027FC6"/>
<path transform="translate(1451,429)" d="m0 0h20l12 6 7 8 5 10 2 10v9l-3 15-6 9-9 8-7 3-6 1h-12l-10-3-8-7-6-8-4-12v-18l4-13 6-9 7-6zm6 8-9 3-6 5-5 10-2 12 1 13 5 10 7 7 9 3h8l9-3 8-8 4-11v-20l-5-12-7-6-9-3z" fill="#027FC6"/>
<path transform="translate(736,429)" d="m0 0h19l9 4 7 5 6 9 4 11v19l-4 13-7 9-8 6-5 2-6 1h-12l-11-3-10-9-6-12-2-11v-10l4-16 6-8 8-7zm5 8-9 3-5 4-5 10-2 9v15l4 10 7 8 10 4h9l8-3 8-7 4-10 1-6v-13l-3-10-4-6-7-6-7-2z" fill="#027FC6"/>
<path transform="translate(1662,428)" d="m0 0h11l10 3 6 5 6 12-2 4h-5l-5-6-4-5-8-3h-9l-7 2-4 5v7l5 5 16 5 10 3 10 6 4 7 1 3v7l-3 9-7 7-7 3-5 1h-15l-8-2-8-6-5-9-1-6 2-4 5 1 6 9 5 5 10 3 11-1 7-4 2-4v-8l-5-5-8-3-21-6-8-6-4-10 1-9 5-8 8-5z" fill="#027FC7"/>
<path transform="translate(1574,430)" d="m0 0h54v7l-1 2h-43v24h41l1 6-1 2h-41v27h44l2 4v4l-3 1h-53z" fill="#0280C7"/>
<path transform="translate(1288,430)" d="m0 0h40l8 3 5 5 4 7v13l-5 10-6 5-9 2h-27v32h-8l-1-1-1-8zm10 8v28l1 1h18l10-1 5-3 3-6v-9l-3-6-5-3-18-1z" fill="#027FC7"/>
<path transform="translate(975,429)" d="m0 0h6l3 3 12 31 15 39 1 5h-9l-6-12-4-10-1-1h-31l-3 12-4 10-1 1h-8l-1-3 16-44 10-26zm2 10-9 25-3 8v3l2 1h23l-3-10-9-27z" fill="#027FC6"/>
<path transform="translate(1213,429)" d="m0 0h6l4 5 17 43 10 26v4h-8l-4-6-6-15v-2h-26l-6 1-7 20-1 2h-8l-1-4 24-66 4-7zm2 10-12 36 6 1h19l-2-9-9-27z" fill="#027FC6"/>
<path transform="translate(1918,429)" d="m0 0h6l4 5 19 48 9 23v2h-9l-4-6-7-17h-31l-3 11-4 11-2 1h-7l-1-3 22-62 5-10zm2 11-11 32v3l3 1h22l-10-29-3-7z" fill="#027FC7"/>
<path transform="translate(1140,428)" d="m0 0h10l9 3 8 6 6 10v5l-7 1-6-7-4-5-7-3h-10l-8 3-5 5-4 9-2 10v10l4 13 7 8 9 3h8l10-5 5-8 3-5h7l2 3-4 10-8 9-8 4-5 1h-15l-9-3-7-6-6-10-3-12v-19l4-13 6-8 9-6 5-2z" fill="#027FC7"/>
<path transform="translate(651,430)" d="m0 0h50l1 1v6l-1 2h-27l-13-1v25h35l1 1-1 7-1 1h-34v34l-1 1h-8l-1-1z" fill="#0281C8"/>
<path transform="translate(1512,430)" d="m0 0h50v8l-5 1h-36l1 23 35 1v8l-1 1h-35l1 34-1 1h-8l-1-1-1-75z" fill="#027EC6"/>
<path transform="translate(994,103)" d="m0 0h79v1l-51 1-9 3-10 2-12-2-2-1-13 1-11 3-1 3 3 1-5 5-12 7-11 10-11 8-6 10-5 6h-2v2l-6 2v-4l-8 11-4 3h-2l-2 5-3 5-1-2 8-16 10-16 13-16 10-10 10-7 16-8 13-4 13-2z" fill="#039AD7"/>
<path transform="translate(1021,430)" d="m0 0h57v7l-1 1-24 1v67l-1 1h-7l-2-1-1-66-22-1-2-1 1-7z" fill="#0280C7"/>
<path transform="translate(1962,430)" d="m0 0h10v68h36l1 1v7l-9 1h-37l-1-2z" fill="#027FC7"/>
<path transform="translate(1089,430)" d="m0 0h9v76l-1 1h-8l-1-1v-75z" fill="#0280C7"/>
<path transform="translate(1710,430)" d="m0 0h10v76l-1 1h-7l-2-2z" fill="#0281C8"/>
<path transform="translate(830,357)" d="m0 0 5 1 1 7-8 9-6 4-4 4-5 3-9 2-8 2-18 2-5-1 2-4 2-2 18-5 8-7 9-4 13-7z" fill="#0389CA"/>
<path transform="translate(549,430)" d="m0 0h9l1 1-1 76h-9z" fill="#027CC5"/>
<path transform="translate(1233,287)" d="m0 0 2 1-5 12v13l4 10 4 5 9 6 16 4 16 1-1 2-17 4h-15l-6-2-6-4-4-5-6-16-2-9 1-7 4-8z" fill="#038ACB"/>
<path transform="translate(887,189)" d="m0 0 2 1 2 8-1 7-1 16-3 21-1 8v31l-2-1-2-19v-39l2-18z" fill="#039BD8"/>
<path transform="translate(977,224)" d="m0 0h2l-2 14v26l3 15 6 15 7 10 9 10 10 7-2 1-6-3-6-5v-2l-4-2-5-5-8-11-3-6-2-9-2-19-1-27 3-7z" fill="#039BD8"/>
<path transform="translate(1121,323)" d="m0 0h3v69h-2l-1-43-3-11-2-3v-4l-3-1v-2l-8 1 1-2z" fill="#039BD8"/>
<path transform="translate(1186,141)" d="m0 0 4 1-2 6 1 12-4 10h-2v-3h-2l-2-7-1-14 1 3h2l2-5z" fill="#027CC5"/>
<path transform="translate(1175,379)" d="m0 0 4 1 10 6 12 5 11 3 4 2 19 2h38v1l-12 2h-28l-19-3-18-6-14-7-7-5z" fill="#038DCD"/>
<path transform="translate(1012,322)" d="m0 0 6 2 13 5 15 3 27 1-3 2-31 1-10-4-7-1-7-6z" fill="#039BD8"/>
<path transform="translate(549,430)" d="m0 0h9l1 1-1 11h-2l-1 4-1-2-1 3-3-1-1 3z" fill="#0280C7"/>
<path transform="translate(885,287)" d="m0 0 2 2 5 17 7 15 6 10 3 6 7 9 9 10 2 4-7-6-9-10-10-15-8-16-6-19z" fill="#039BD8"/>
<path transform="translate(980,409)" d="m0 0 7 1-4 7-4 6-8 1-1-3 6-10z" fill="#0280C7"/>
<path transform="translate(1247,268)" d="m0 0h6l-2 3 16-3h9v1l-15 3-11 4-11 7-4 4 1-4 5-6 3-6z" fill="#038BCC"/>
<path transform="translate(1317,322)" d="m0 0m-1 1m3 0v3l-5 4h-2l-2 4-6 4-5 1-5-1h-5l20-10 5-4h4z" fill="#0289CA"/>
<path transform="translate(1513,310)" d="m0 0 6 3 1 6 4 1 4 6 3 3-1 4-4-1-3-1v-4h-2l-4-10-3-2z" fill="#027CC5"/>
<path transform="translate(1150,322)" d="m0 0 2 4 2 9h2v7h-3l-4-8z" fill="#027CC5"/>
<path transform="translate(549,436)" d="m0 0 6 2 1 2v6l-2-2-1 3-3-1-1 3z" fill="#0389CA"/>
<path transform="translate(1909,448)" d="m0 0h6v8l-8-1v-5z" fill="#0272B6"/>
<path transform="translate(762,159)" d="m0 0 7 1v5h-10v-5z" fill="#0389CA"/>
<path transform="translate(1178,176)" d="m0 0 2 3v9l4 1-2 4-4 2z" fill="#027EC6"/>
<path transform="translate(1114,114)" d="m0 0 6 3v10l-2 1-2-11-2-1z" fill="#039BD8"/>
<path transform="translate(980,409)" d="m0 0 7 1-4 7h-3l2-6h-2z" fill="#039BD8"/>
</svg>
